<svg width="40" height="40" viewBox="0 0 40 40" fill="none" xmlns="http://www.w3.org/2000/svg">
<path d="M34.6733 23.5374C34.6133 23.7172 34.5294 23.893 34.4415 24.0648C34.3576 24.2366 34.2777 24.4124 34.1858 24.5843L33.8901 25.0797C33.8382 25.1596 33.7902 25.2435 33.7383 25.3234L33.5665 25.5552L33.2189 26.0147L32.8353 26.4422L32.6395 26.654C32.5716 26.7219 32.4997 26.7858 32.4277 26.8498L32.0002 27.2333C31.4009 27.7088 30.7616 28.1523 30.0583 28.468C29.7187 28.6478 29.3471 28.7677 28.9875 28.8995C28.8996 28.9355 28.8037 28.9594 28.7118 28.9834L28.4321 29.0553L28.1564 29.1233L27.3293 24.796H27.3333L27.4772 24.7561C27.5251 24.7441 27.5771 24.7321 27.621 24.7121C27.8048 24.6362 28.0006 24.5843 28.1764 24.4844C28.544 24.3285 28.8717 24.0848 29.1913 23.8451C29.2632 23.7771 29.3391 23.7092 29.4151 23.6413C29.451 23.6053 29.491 23.5734 29.5269 23.5414L29.6268 23.4295L29.8306 23.2098C29.8865 23.1259 29.9465 23.046 30.0064 22.966L30.0983 22.8462L30.1742 22.7183C30.2262 22.6304 30.2781 22.5465 30.334 22.4626C30.378 22.3747 30.4179 22.2828 30.4659 22.1909C30.5098 22.103 30.5578 22.0111 30.5858 21.9152C30.6177 21.8233 30.6537 21.7274 30.6897 21.6355C30.7256 21.5436 30.7376 21.4437 30.7656 21.3438C30.8255 21.152 30.8455 20.9523 30.8774 20.7565C30.9014 20.6566 30.8934 20.5567 30.9014 20.4568L30.9174 20.1531C30.9134 20.0532 30.9054 19.9534 30.9014 19.8495V19.6976C30.8934 19.6497 30.8774 19.5977 30.8734 19.5498C30.7776 18.8546 30.5458 18.1753 30.1622 17.584L33.7103 14.9868C34.5334 16.1695 35.0489 17.564 35.2366 18.9904C35.4484 20.5127 35.2327 22.083 34.6773 23.5214L34.6733 23.5374Z" fill="white"/>
<path d="M33.3587 14.5274L29.8106 17.1285C29.8106 17.1285 29.8106 17.1245 29.8066 17.1245C29.7387 17.0526 29.6708 16.9767 29.6028 16.9007C29.5709 16.8648 29.5389 16.8248 29.5029 16.7889L29.3911 16.689L29.1713 16.4852C29.0874 16.4253 29.0075 16.3693 28.9276 16.3054L28.8077 16.2135L28.6758 16.1376C28.5919 16.0856 28.504 16.0337 28.4201 15.9818L28.1484 15.8539C27.4292 15.4983 26.6181 15.3784 25.811 15.4104C25.0079 15.4623 24.2287 15.722 23.5535 16.1536C23.2139 16.3693 22.9022 16.629 22.6305 16.9247L22.4307 17.1525C22.3708 17.2324 22.3108 17.3083 22.2469 17.3922L21.9672 17.8038L18.3073 15.3704L18.6868 14.819C18.7947 14.6672 18.9186 14.5154 19.0345 14.3635C19.1583 14.2157 19.2862 14.0719 19.414 13.928C19.9375 13.3646 20.5328 12.8692 21.1801 12.4536C22.4747 11.6226 23.989 11.1191 25.5233 11.0232L26.0987 11.0032C26.2905 11.0032 26.4823 11.0192 26.674 11.0272C27.0576 11.0352 27.4412 11.1031 27.8208 11.1631C28.0126 11.187 28.1964 11.247 28.3842 11.2909C28.572 11.3389 28.7598 11.3828 28.9436 11.4428L29.487 11.6425C29.5789 11.6785 29.6668 11.7065 29.7587 11.7464L30.0184 11.8703C30.1902 11.9542 30.366 12.0381 30.5378 12.126L31.0333 12.4217L31.277 12.5735L31.5087 12.7453L31.9682 13.0929C32.1121 13.2208 32.2559 13.3487 32.3958 13.4765L32.6075 13.6723C32.6754 13.7402 32.7394 13.8121 32.8073 13.8801L33.1909 14.3076C33.2508 14.3795 33.3068 14.4554 33.3667 14.5314L33.3587 14.5274Z" fill="white"/>
<path d="M21.6356 18.2872L17.7998 23.8451L16.7969 25.2955C16.7609 25.3475 16.697 25.4394 16.6411 25.5113L16.4732 25.743C16.3574 25.8949 16.2295 26.0427 16.1096 26.1905C15.9818 26.3344 15.8499 26.4742 15.7181 26.6141C15.5822 26.7459 15.4424 26.8818 15.2985 27.0096C14.2277 27.9726 12.9251 28.6798 11.5267 29.0474L10.5358 24.7561C11.207 24.5563 11.8343 24.2047 12.3618 23.7332L12.5815 23.5255L12.7853 23.3057C12.8452 23.2258 12.9132 23.1499 12.9771 23.07L13.1689 22.8063L14.1638 21.3678L17.9676 15.8499L21.6316 18.2832L21.6356 18.2872Z" fill="white"/>
<path d="M10.9673 29.1792C9.55289 29.4589 8.08251 29.395 6.68805 29.0074C6.59615 28.9794 6.50025 28.9595 6.40835 28.9315L6.13665 28.8316L5.59725 28.6318L5.07382 28.3841L4.81411 28.2562C4.7302 28.2123 4.65029 28.1603 4.56638 28.1084L4.07492 27.8087C3.9151 27.7009 3.76326 27.585 3.60743 27.4691C3.29178 27.2494 3.02008 26.9737 2.73639 26.7179C2.20098 26.1665 1.70153 25.5752 1.31396 24.9079C1.10619 24.5843 0.946361 24.2327 0.778546 23.8851L0.718612 23.7532L0.666669 23.6173L0.566779 23.3456C0.502849 23.1658 0.426933 22.986 0.378985 22.7982C-0.0245706 21.4078 -0.112474 19.9414 0.14724 18.5229L4.45051 19.4499C4.34662 20.1452 4.40256 20.8724 4.59435 21.5436C4.61433 21.6435 4.66227 21.7314 4.69424 21.8273L4.74219 21.9672L4.76616 22.0391L4.79812 22.107C4.89002 22.2868 4.96194 22.4706 5.07782 22.6384C5.2736 22.99 5.54131 23.2937 5.817 23.5854C5.89292 23.6533 5.96484 23.7172 6.04076 23.7852C6.11268 23.8571 6.19259 23.917 6.2725 23.973C6.35641 24.0329 6.43233 24.0968 6.51623 24.1528C6.60414 24.2007 6.68805 24.2566 6.77595 24.3086C6.8199 24.3326 6.85986 24.3645 6.90381 24.3845L7.03966 24.4484C7.12756 24.4924 7.21946 24.5363 7.30736 24.5803L7.59105 24.6802L7.7309 24.7321C7.77885 24.7481 7.82679 24.7561 7.87474 24.7721C8.546 24.9559 9.2732 25.0038 9.96844 24.8879L10.9633 29.1752L10.9673 29.1792Z" fill="white"/>
<path d="M14.7671 12.8971L12.0861 16.3853C11.4468 15.8938 10.6916 15.5742 9.90047 15.4543C9.70069 15.4224 9.50091 15.4064 9.30113 15.4024C9.20124 15.3984 9.10135 15.4024 8.99746 15.4104C8.89757 15.4144 8.79768 15.4224 8.6938 15.4224C8.29823 15.4823 7.90267 15.5422 7.53108 15.6981C7.15149 15.8219 6.80388 16.0297 6.46824 16.2415C6.31242 16.3693 6.13661 16.4732 5.99676 16.617C5.92484 16.689 5.84493 16.7489 5.77301 16.8208C5.70508 16.8967 5.64115 16.9726 5.57323 17.0446C5.54126 17.0845 5.50131 17.1165 5.47334 17.1564L5.38544 17.2763L5.20563 17.5161C5.15769 17.604 5.10574 17.6879 5.04981 17.7758L4.96989 17.9036L4.90596 18.0395C4.86201 18.1314 4.81806 18.2193 4.77411 18.3112L4.67422 18.5909L4.62228 18.7307C4.6023 18.7747 4.5983 18.8266 4.58232 18.8746C4.58232 18.8746 4.58232 18.8786 4.58232 18.8825L0.279053 17.9556L0.350974 17.6799C0.378943 17.588 0.398921 17.4921 0.430886 17.4042L0.52678 17.1325C0.594705 16.9527 0.658635 16.7689 0.730556 16.5931L0.978284 16.0696L1.10614 15.8099L1.25398 15.5622L1.55365 15.0707C1.66553 14.9149 1.7814 14.7591 1.89328 14.6073L2.06908 14.3755C2.12902 14.2996 2.19694 14.2317 2.26087 14.1597L2.64845 13.7322C2.7803 13.5964 2.92814 13.4685 3.06798 13.3406C3.34368 13.0729 3.66333 12.8572 3.97099 12.6254C4.61029 12.2019 5.28954 11.8223 6.02074 11.5706C6.73995 11.2909 7.50311 11.1431 8.26627 11.0472L8.84163 11.0152C9.03342 11.0032 9.22521 10.9952 9.417 11.0032C9.80058 11.0152 10.1842 11.0432 10.5637 11.1031C12.0901 11.3309 13.5525 11.9582 14.7711 12.8931L14.7671 12.8971Z" fill="white"/>
<path d="M27.5771 29.2351C27.2934 29.2791 27.0097 29.323 26.722 29.331L26.1467 29.359C25.9549 29.355 25.7631 29.343 25.5713 29.335C25.1877 29.327 24.8041 29.2551 24.4246 29.1992L24.2807 29.1752L24.1409 29.1432L23.8612 29.0713C23.6734 29.0194 23.4856 28.9834 23.3058 28.9155C22.9462 28.7836 22.5746 28.6678 22.231 28.488C22.0592 28.4041 21.8834 28.3241 21.7115 28.2322L21.2161 27.9366C21.1362 27.8846 21.0523 27.8367 20.9724 27.7807L20.7406 27.6089C20.5848 27.4931 20.433 27.3772 20.2811 27.2613L19.8536 26.8777L19.6418 26.6819L19.446 26.4702L19.0585 26.0427C18.9386 25.8948 18.8267 25.739 18.7108 25.5832L18.539 25.3514C18.4831 25.2715 18.4351 25.1876 18.3832 25.1077L18.0875 24.6122C18.0715 24.5843 18.0556 24.5523 18.0436 24.5243L21.3759 19.6976C21.3599 19.8575 21.3479 20.0213 21.3479 20.1811C21.3679 20.5847 21.3919 20.9882 21.5038 21.3718C21.5877 21.7634 21.7595 22.127 21.9393 22.4866C21.9912 22.5705 22.0432 22.6584 22.0951 22.7423C22.1231 22.7822 22.1431 22.8302 22.171 22.8701L22.2629 22.99L22.4427 23.2297C22.5147 23.3017 22.5786 23.3776 22.6465 23.4535L22.7464 23.5654L22.8583 23.6653C22.9342 23.7332 23.0061 23.8011 23.078 23.869L23.3218 24.0488L23.4416 24.1407C23.4816 24.1687 23.5295 24.1927 23.5695 24.2167C23.6534 24.2686 23.7413 24.3205 23.8252 24.3725C23.9131 24.4204 24.005 24.4564 24.0969 24.5043C24.2727 24.6042 24.4685 24.6522 24.6523 24.7281C25.3196 24.9439 26.0428 24.9998 26.742 24.9159L27.5691 29.2391L27.5771 29.2351Z" fill="white"/>
<path d="M39.6038 29.3591L35.6442 22.3748C35.5363 22.8343 35.3964 23.2897 35.2246 23.7413C35.1527 23.953 35.0608 24.1448 34.9689 24.3286L34.921 24.4245C34.849 24.5723 34.7811 24.7162 34.7052 24.86L34.6972 24.876L34.3815 25.3994C34.3576 25.4354 34.2577 25.5992 34.2297 25.6432L34.2177 25.6591L34.0339 25.9069L33.6663 26.3903L33.2628 26.8378L33.055 27.0656L33.043 27.0776C33.0031 27.1175 32.9591 27.1575 32.9152 27.1975L34.4055 29.3591H39.5958H39.6038Z" fill="white"/>
</svg>
