<svg width="40" height="40" viewBox="0 0 40 40" fill="none" xmlns="http://www.w3.org/2000/svg">
<g clip-path="url(#clip0_208_55)">
<path d="M34.8697 23.6301C34.8097 23.8099 34.7258 23.9857 34.6379 24.1575C34.554 24.3294 34.4741 24.5052 34.3822 24.677L34.0865 25.1724C34.0346 25.2523 33.9867 25.3362 33.9347 25.4162L33.7629 25.6479L33.4153 26.1074L33.0317 26.5349L32.8359 26.7467C32.768 26.8146 32.6961 26.8786 32.6241 26.9425L32.1966 27.3261C31.5973 27.8015 30.958 28.245 30.2548 28.5607C29.9151 28.7405 29.5435 28.8604 29.1839 28.9922C29.096 29.0282 29.0001 29.0522 28.9082 29.0761L28.6285 29.1481L28.3528 29.216L27.5258 24.8887H27.5298L27.6736 24.8488C27.7215 24.8368 27.7735 24.8248 27.8174 24.8048C28.0012 24.7289 28.197 24.677 28.3728 24.5771C28.7404 24.4213 29.0681 24.1775 29.3877 23.9378C29.4596 23.8699 29.5355 23.8019 29.6115 23.734C29.6474 23.698 29.6874 23.6661 29.7233 23.6341L29.8232 23.5222L30.027 23.3025C30.0829 23.2186 30.1429 23.1387 30.2028 23.0588L30.2947 22.9389L30.3706 22.811C30.4226 22.7231 30.4745 22.6392 30.5305 22.5553C30.5744 22.4674 30.6144 22.3755 30.6623 22.2836C30.7063 22.1957 30.7542 22.1038 30.7822 22.0079C30.8141 21.916 30.8501 21.8201 30.8861 21.7282C30.922 21.6363 30.934 21.5364 30.962 21.4365C31.0219 21.2447 31.0419 21.045 31.0739 20.8492C31.0978 20.7493 31.0898 20.6494 31.0978 20.5495L31.1138 20.2458C31.1098 20.146 31.1018 20.0461 31.0978 19.9422V19.7903C31.0898 19.7424 31.0739 19.6905 31.0699 19.6425C30.974 18.9473 30.7422 18.268 30.3586 17.6767L33.9067 15.0795C34.7298 16.2622 35.2453 17.6567 35.4331 19.0831C35.6448 20.6055 35.4291 22.1757 34.8737 23.6141L34.8697 23.6301Z" fill="#0495B7"/>
<path d="M33.5551 14.62L30.007 17.2211C30.007 17.2211 30.007 17.2172 30.003 17.2172C29.9351 17.1452 29.8672 17.0693 29.7992 16.9934C29.7673 16.9574 29.7353 16.9175 29.6993 16.8815L29.5875 16.7816L29.3677 16.5779C29.2838 16.5179 29.2039 16.462 29.124 16.3981L29.0041 16.3062L28.8723 16.2302C28.7883 16.1783 28.7004 16.1264 28.6165 16.0744L28.3448 15.9466C27.6256 15.5909 26.8145 15.4711 26.0074 15.503C25.2043 15.555 24.4251 15.8147 23.7499 16.2462C23.4103 16.462 23.0986 16.7217 22.8269 17.0174L22.6271 17.2451C22.5672 17.325 22.5073 17.401 22.4433 17.4849L22.1636 17.8964L18.5037 15.4631L18.8832 14.9117C18.9911 14.7599 19.115 14.608 19.2309 14.4562C19.3547 14.3084 19.4826 14.1645 19.6104 14.0207C20.1339 13.4573 20.7292 12.9618 21.3765 12.5463C22.6711 11.7152 24.1854 11.2118 25.7197 11.1159L26.2951 11.0959C26.4869 11.0959 26.6787 11.1119 26.8705 11.1199C27.254 11.1279 27.6376 11.1958 28.0172 11.2557C28.209 11.2797 28.3928 11.3396 28.5806 11.3836C28.7684 11.4315 28.9562 11.4755 29.14 11.5354L29.6834 11.7352C29.7753 11.7711 29.8632 11.7991 29.9551 11.8391L30.2148 11.9629C30.3866 12.0468 30.5624 12.1307 30.7342 12.2187L31.2297 12.5143L31.4734 12.6662L31.7051 12.838L32.1646 13.1856C32.3085 13.3134 32.4523 13.4413 32.5922 13.5692L32.8039 13.765C32.8719 13.8329 32.9358 13.9048 33.0037 13.9727L33.3873 14.4003C33.4472 14.4722 33.5032 14.5481 33.5631 14.624L33.5551 14.62Z" fill="#49BF78"/>
<path d="M21.832 18.3799L17.9962 23.9378L16.9933 25.3882C16.9573 25.4401 16.8934 25.532 16.8375 25.6039L16.6696 25.8357C16.5538 25.9875 16.4259 26.1354 16.306 26.2832C16.1782 26.427 16.0463 26.5669 15.9145 26.7067C15.7786 26.8386 15.6388 26.9744 15.4949 27.1023C14.4241 28.0652 13.1215 28.7725 11.7231 29.14L10.7322 24.8488C11.4034 24.649 12.0307 24.2974 12.5582 23.8259L12.7779 23.6181L12.9817 23.3984C13.0416 23.3185 13.1096 23.2425 13.1735 23.1626L13.3653 22.8989L14.3602 21.4605L18.164 15.9426L21.828 18.3759L21.832 18.3799Z" fill="#EFC739"/>
<path d="M11.1637 29.2719C9.74931 29.5516 8.27892 29.4877 6.88446 29.1001C6.79256 29.0721 6.69666 29.0522 6.60476 29.0242L6.33306 28.9243L5.79366 28.7245L5.27023 28.4768L5.01052 28.3489C4.92661 28.305 4.8467 28.253 4.76279 28.2011L4.27133 27.9014C4.11151 27.7935 3.95967 27.6777 3.80385 27.5618C3.48819 27.342 3.21649 27.0663 2.9328 26.8106C2.39739 26.2592 1.89794 25.6679 1.51037 25.0006C1.3026 24.677 1.14277 24.3254 0.974957 23.9777L0.915023 23.8459L0.86308 23.71L0.76319 23.4383C0.69926 23.2585 0.623344 23.0787 0.575397 22.8909C0.171841 21.5005 0.0839372 20.0341 0.343652 18.6156L4.64692 19.5426C4.54303 20.2378 4.59897 20.965 4.79076 21.6363C4.81074 21.7362 4.85868 21.8241 4.89065 21.92L4.9386 22.0598L4.96257 22.1318L4.99454 22.1997C5.08643 22.3795 5.15836 22.5633 5.27423 22.7311C5.47001 23.0827 5.73772 23.3864 6.01341 23.6781C6.08933 23.746 6.16125 23.8099 6.23717 23.8778C6.30909 23.9498 6.389 24.0097 6.46891 24.0656C6.55282 24.1256 6.62874 24.1895 6.71265 24.2454C6.80055 24.2934 6.88446 24.3493 6.97236 24.4013C7.01631 24.4252 7.05627 24.4572 7.10022 24.4772L7.23607 24.5411C7.32397 24.5851 7.41587 24.629 7.50378 24.673L7.78746 24.7729L7.92731 24.8248C7.97526 24.8408 8.0232 24.8488 8.07115 24.8648C8.74241 25.0486 9.46961 25.0965 10.1648 24.9806L11.1598 29.2679L11.1637 29.2719Z" fill="#EE923E"/>
<path d="M14.9635 12.9898L12.2825 16.478C11.6432 15.9865 10.888 15.6669 10.0969 15.547C9.8971 15.515 9.69732 15.4991 9.49754 15.4951C9.39765 15.4911 9.29776 15.4951 9.19387 15.5031C9.09398 15.507 8.99409 15.515 8.89021 15.515C8.49464 15.575 8.09908 15.6349 7.72749 15.7907C7.3479 15.9146 7.00029 16.1224 6.66466 16.3341C6.50883 16.462 6.33302 16.5659 6.19317 16.7097C6.12125 16.7816 6.04134 16.8416 5.96942 16.9135C5.9015 16.9894 5.83757 17.0653 5.76964 17.1373C5.73768 17.1772 5.69772 17.2092 5.66975 17.2491L5.58185 17.369L5.40204 17.6087C5.3541 17.6966 5.30215 17.7805 5.24622 17.8684L5.1663 17.9963L5.10237 18.1322C5.05842 18.2241 5.01447 18.312 4.97052 18.4039L4.87063 18.6836L4.81869 18.8234C4.79871 18.8673 4.79471 18.9193 4.77873 18.9672C4.77873 18.9672 4.77873 18.9712 4.77873 18.9752L0.475464 18.0483L0.547385 17.7726C0.575354 17.6807 0.595332 17.5848 0.627297 17.4969L0.723191 17.2252C0.791117 17.0454 0.855046 16.8616 0.926967 16.6857L1.17469 16.1623L1.30255 15.9026L1.45039 15.6549L1.75006 15.1634C1.86194 15.0076 1.97781 14.8518 2.08969 14.6999L2.26549 14.4682C2.32543 14.3923 2.39335 14.3243 2.45728 14.2524L2.84486 13.8249C2.97671 13.689 3.12455 13.5612 3.2644 13.4333C3.54009 13.1656 3.85974 12.9499 4.1674 12.7181C4.8067 12.2946 5.48595 11.915 6.21715 11.6633C6.93636 11.3836 7.69952 11.2357 8.46268 11.1399L9.03805 11.1079C9.22983 11.0959 9.42162 11.0879 9.61341 11.0959C9.99699 11.1079 10.3806 11.1359 10.7602 11.1958C12.2865 11.4235 13.7489 12.0508 14.9675 12.9858L14.9635 12.9898Z" fill="#CC4040"/>
<path d="M27.7735 29.3279C27.4898 29.3718 27.2061 29.4158 26.9184 29.4237L26.3431 29.4517C26.1513 29.4477 25.9595 29.4357 25.7677 29.4277C25.3841 29.4198 25.0006 29.3478 24.621 29.2919L24.4771 29.2679L24.3373 29.236L24.0576 29.164C23.8698 29.1121 23.682 29.0761 23.5022 29.0082C23.1426 28.8764 22.771 28.7605 22.4274 28.5807C22.2556 28.4968 22.0798 28.4169 21.908 28.325L21.4125 28.0293C21.3326 27.9773 21.2487 27.9294 21.1688 27.8735L20.937 27.7016C20.7812 27.5858 20.6294 27.4699 20.4775 27.354L20.05 26.9704L19.8382 26.7747L19.6424 26.5629L19.2549 26.1354C19.135 25.9875 19.0231 25.8317 18.9073 25.6759L18.7354 25.4441C18.6795 25.3642 18.6316 25.2803 18.5796 25.2004L18.2839 24.7049C18.268 24.677 18.252 24.645 18.24 24.617L21.5723 19.7903C21.5563 19.9502 21.5444 20.114 21.5444 20.2738C21.5643 20.6774 21.5883 21.0809 21.7002 21.4645C21.7841 21.8561 21.9559 22.2197 22.1357 22.5793C22.1876 22.6632 22.2396 22.7511 22.2915 22.835C22.3195 22.875 22.3395 22.9229 22.3674 22.9629L22.4593 23.0827L22.6392 23.3225C22.7111 23.3944 22.775 23.4703 22.8429 23.5462L22.9428 23.6581L23.0547 23.758C23.1306 23.8259 23.2025 23.8938 23.2745 23.9618L23.5182 24.1416L23.6381 24.2335C23.678 24.2614 23.726 24.2854 23.7659 24.3094C23.8498 24.3613 23.9377 24.4133 24.0216 24.4652C24.1095 24.5131 24.2014 24.5491 24.2933 24.5971C24.4691 24.6969 24.6649 24.7449 24.8487 24.8208C25.516 25.0366 26.2392 25.0925 26.9384 25.0086L27.7655 29.3318L27.7735 29.3279Z" fill="#701FD8"/>
<path d="M39.8002 29.4517L35.8406 22.4674C35.7327 22.9269 35.5928 23.3824 35.421 23.8339C35.3491 24.0456 35.2572 24.2374 35.1653 24.4212L35.1174 24.5171C35.0454 24.665 34.9775 24.8088 34.9016 24.9526L34.8936 24.9686L34.578 25.492C34.554 25.528 34.4541 25.6918 34.4261 25.7358L34.4141 25.7518L34.2303 25.9995L33.8627 26.483L33.4592 26.9305L33.2514 27.1582L33.2394 27.1702C33.1995 27.2102 33.1555 27.2501 33.1116 27.2901L34.6019 29.4517H39.7922H39.8002Z" fill="#0495B7"/>
</g>
<defs>
<clipPath id="clip0_208_55">
<rect width="40" height="18.5436" fill="white" transform="translate(0 11)"/>
</clipPath>
</defs>
</svg>
